<?xml version="1.0" encoding="UTF-8"?>
<!DOCTYPE svg PUBLIC "-//W3C//DTD SVG 1.1//EN" "http://www.w3.org/Graphics/SVG/1.1/DTD/svg11.dtd">
<svg xmlns="http://www.w3.org/2000/svg" version="1.1" width="512px" height="512px" style="shape-rendering:geometricPrecision; text-rendering:geometricPrecision; image-rendering:optimizeQuality; fill-rule:evenodd; clip-rule:evenodd" xmlns:xlink="http://www.w3.org/1999/xlink">
<g><path style="opacity:0.787" fill="#ff3316" d="M 251.5,80.5 C 251.99,78.0516 251.157,76.385 249,75.5C 247.97,75.8361 247.47,76.5028 247.5,77.5C 243.414,76.4113 241.081,73.7447 240.5,69.5C 242.28,68.0101 242.946,66.0101 242.5,63.5C 242.5,61.1667 242.5,58.8333 242.5,56.5C 241.5,56.5 240.5,56.5 239.5,56.5C 240.153,55.1932 240.82,53.8599 241.5,52.5C 249.479,51.3351 257.479,51.1684 265.5,52C 274.351,65.0612 271.685,74.7279 257.5,81C 257.833,81.3333 258.167,81.6667 258.5,82C 256.167,82.6667 253.833,82.6667 251.5,82C 252.738,81.31 252.738,80.81 251.5,80.5 Z"/></g>
<g><path style="opacity:0.05" fill="#ff1206" d="M 239.5,56.5 C 240.5,56.5 241.5,56.5 242.5,56.5C 242.5,58.8333 242.5,61.1667 242.5,63.5C 241.167,63.5 239.833,63.5 238.5,63.5C 238.198,60.9407 238.532,58.6074 239.5,56.5 Z"/></g>
<g><path style="opacity:0.039" fill="#ff3c08" d="M 238.5,63.5 C 239.833,63.5 241.167,63.5 242.5,63.5C 242.946,66.0101 242.28,68.0101 240.5,69.5C 240.19,68.2617 239.69,68.2617 239,69.5C 238.505,67.5273 238.338,65.5273 238.5,63.5 Z"/></g>
<g><path style="opacity:0.214" fill="#ff3f0f" d="M 251.5,80.5 C 249.545,80.2014 248.211,79.2014 247.5,77.5C 247.47,76.5028 247.97,75.8361 249,75.5C 251.157,76.385 251.99,78.0516 251.5,80.5 Z"/></g>
<g><path style="opacity:0.842" fill="#ff3316" d="M 258.5,96.5 C 257.504,96.4142 256.671,96.7476 256,97.5C 255.505,99.4727 255.338,101.473 255.5,103.5C 256.833,103.5 258.167,103.5 259.5,103.5C 260.427,110.443 260.76,117.443 260.5,124.5C 256.843,126.874 256.509,129.874 259.5,133.5C 260.425,134.562 261.425,134.562 262.5,133.5C 262.801,139.511 263.301,145.511 264,151.5C 264.333,149.5 264.667,147.5 265,145.5C 265.153,154.55 265.82,163.55 267,172.5C 267.333,171.5 267.667,170.5 268,169.5C 268.495,171.473 268.662,173.473 268.5,175.5C 266.856,175.286 265.356,175.62 264,176.5C 263.503,178.81 263.337,181.143 263.5,183.5C 265.167,183.5 266.833,183.5 268.5,183.5C 269.665,199.625 271.665,214.959 274.5,229.5C 273.504,229.414 272.671,229.748 272,230.5C 270.417,235.1 271.917,236.934 276.5,236C 277.684,234.855 277.684,233.688 276.5,232.5C 280.012,226.535 282.678,219.868 284.5,212.5C 289.987,213.038 292.153,210.705 291,205.5C 290.329,204.748 289.496,204.414 288.5,204.5C 289.21,202.254 289.71,199.92 290,197.5C 290.333,197.833 290.667,198.167 291,198.5C 291.973,196.608 292.64,194.608 293,192.5C 294.865,190.327 297.031,189.993 299.5,191.5C 300.661,195.795 300.828,200.129 300,204.5C 298.984,203.366 298.317,203.699 298,205.5C 297.972,215.356 297.138,224.356 295.5,232.5C 296.5,232.5 297.5,232.5 298.5,232.5C 299.287,234.104 300.62,234.771 302.5,234.5C 302.5,232.167 302.5,229.833 302.5,227.5C 303.11,226.609 303.443,225.609 303.5,224.5C 304.833,224.5 306.167,224.5 307.5,224.5C 307.5,222.833 307.5,221.167 307.5,219.5C 307.687,217.436 308.187,215.436 309,213.5C 309.333,213.833 309.667,214.167 310,214.5C 310.81,211.055 312.31,208.055 314.5,205.5C 315.833,205.5 317.167,205.5 318.5,205.5C 318.5,203.833 318.5,202.167 318.5,200.5C 318.996,197.358 320.33,194.692 322.5,192.5C 326.991,191.776 328.658,189.109 327.5,184.5C 332.645,183.677 334.645,180.677 333.5,175.5C 337.795,169.784 342.462,164.284 347.5,159C 347.167,158.667 346.833,158.333 346.5,158C 349.073,155.91 351.739,154.077 354.5,152.5C 357.203,147.621 360.869,143.455 365.5,140C 365.167,139.667 364.833,139.333 364.5,139C 368.072,137.383 371.072,135.05 373.5,132C 373.167,131.667 372.833,131.333 372.5,131C 373.448,130.517 374.448,130.351 375.5,130.5C 375.197,127.412 376.53,125.746 379.5,125.5C 379.5,126.833 379.5,128.167 379.5,129.5C 380.833,129.5 382.167,129.5 383.5,129.5C 383.785,131.288 383.452,132.955 382.5,134.5C 374.142,148.213 367.142,161.88 361.5,175.5C 357.828,175.183 356.162,176.849 356.5,180.5C 357.5,180.5 358.5,180.5 359.5,180.5C 356.946,186.135 354.446,191.802 352,197.5C 351.503,200.146 351.336,202.813 351.5,205.5C 350.5,205.5 349.5,205.5 348.5,205.5C 348.655,210.641 347.988,215.641 346.5,220.5C 345.292,219.766 343.959,219.433 342.5,219.5C 342.5,221.167 342.5,222.833 342.5,224.5C 343.833,224.5 345.167,224.5 346.5,224.5C 346.657,225.873 346.49,227.207 346,228.5C 345.333,227.167 344.667,227.167 344,228.5C 344.081,236.074 342.915,243.407 340.5,250.5C 341.365,251.583 342.365,251.749 343.5,251C 345.281,248.763 347.281,246.763 349.5,245C 349.167,244.667 348.833,244.333 348.5,244C 349.448,243.517 350.448,243.351 351.5,243.5C 352.534,240.093 354.534,237.426 357.5,235.5C 358.287,237.104 359.62,237.771 361.5,237.5C 361.795,235.265 361.461,233.265 360.5,231.5C 361.806,230.533 362.473,229.199 362.5,227.5C 363.5,227.5 364.5,227.5 365.5,227.5C 368.587,220.368 372.92,215.035 378.5,211.5C 378.5,209.833 378.5,208.167 378.5,206.5C 379.5,206.5 380.5,206.5 381.5,206.5C 382.511,208.372 383.345,210.372 384,212.5C 384.671,213.252 385.504,213.586 386.5,213.5C 386.5,214.5 386.5,215.5 386.5,216.5C 385.5,216.5 384.5,216.5 383.5,216.5C 383.5,217.5 383.5,218.5 383.5,219.5C 380.882,216.737 379.548,217.404 379.5,221.5C 379.179,224.512 380.512,225.845 383.5,225.5C 382.233,227.039 381.233,228.706 380.5,230.5C 379.292,229.766 377.959,229.433 376.5,229.5C 375.99,232.388 376.656,234.721 378.5,236.5C 378.664,239.187 378.497,241.854 378,244.5C 377.667,244.167 377.333,243.833 377,243.5C 376.529,247.551 375.363,251.384 373.5,255C 373.667,255.833 373.833,256.667 374,257.5C 374.29,255.889 375.123,254.556 376.5,253.5C 377.833,253.5 379.167,253.5 380.5,253.5C 380.5,252.167 380.5,250.833 380.5,249.5C 383.927,243.471 387.927,238.805 392.5,235.5C 394.167,232.833 395.833,230.167 397.5,227.5C 398.5,227.5 399.5,227.5 400.5,227.5C 402.167,224.833 403.833,222.167 405.5,219.5C 406.5,219.5 407.5,219.5 408.5,219.5C 408.5,218.5 408.5,217.5 408.5,216.5C 414.298,211.933 420.298,207.599 426.5,203.5C 426.263,202.209 426.596,201.209 427.5,200.5C 427.62,201.586 428.287,202.253 429.5,202.5C 433.465,201.214 435.465,198.547 435.5,194.5C 436.183,192.824 437.517,192.157 439.5,192.5C 439.5,191.5 439.5,190.5 439.5,189.5C 443.35,188.005 447.017,186.338 450.5,184.5C 451.568,185.434 452.901,185.768 454.5,185.5C 454.5,184.167 454.5,182.833 454.5,181.5C 458.089,178.895 462.089,177.062 466.5,176C 467.833,175.333 467.833,174.667 466.5,174C 470.486,173.501 474.486,173.334 478.5,173.5C 478.5,176.167 478.5,178.833 478.5,181.5C 477.33,183.279 475.664,184.279 473.5,184.5C 473.5,185.5 473.5,186.5 473.5,187.5C 469.855,188.656 466.522,190.322 463.5,192.5C 463.5,193.5 463.5,194.5 463.5,195.5C 459.24,196.631 455.573,198.798 452.5,202C 452.833,202.333 453.167,202.667 453.5,203C 450.382,204.302 447.716,206.135 445.5,208.5C 444.432,207.566 443.099,207.232 441.5,207.5C 441.5,209.167 441.5,210.833 441.5,212.5C 441.672,213.492 441.338,214.158 440.5,214.5C 440.649,213.448 440.483,212.448 440,211.5C 438.117,212.653 437.284,214.319 437.5,216.5C 437.068,217.71 436.401,218.71 435.5,219.5C 435.719,218.325 435.386,217.325 434.5,216.5C 433.534,218.396 433.201,220.396 433.5,222.5C 430.934,224.323 428.6,226.49 426.5,229C 426.833,229.333 427.167,229.667 427.5,230C 424.333,231.987 422.333,234.82 421.5,238.5C 420.5,238.5 419.5,238.5 418.5,238.5C 418.5,240.167 418.5,241.833 418.5,243.5C 417.5,243.5 416.5,243.5 415.5,243.5C 410.185,252.945 405.852,262.945 402.5,273.5C 401.518,272.859 400.518,272.193 399.5,271.5C 398.516,274.428 398.183,277.428 398.5,280.5C 399.5,280.5 400.5,280.5 401.5,280.5C 398.629,290.562 397.296,300.895 397.5,311.5C 395.599,311.433 393.766,311.767 392,312.5C 390.831,311.991 389.998,311.158 389.5,310C 387.934,309.235 386.601,309.402 385.5,310.5C 384.17,309.168 382.503,308.335 380.5,308C 381.833,307.333 381.833,306.667 380.5,306C 376.289,304.063 372.622,301.396 369.5,298C 368.207,297.51 366.873,297.343 365.5,297.5C 365.5,296.5 365.5,295.5 365.5,294.5C 360.999,292.444 356.333,290.777 351.5,289.5C 351.5,288.5 351.5,287.5 351.5,286.5C 345.67,284.372 339.67,282.538 333.5,281C 334.833,280.333 334.833,279.667 333.5,279C 331.167,278.667 328.833,278.333 326.5,278C 327.634,276.984 327.301,276.317 325.5,276C 322.375,275.456 319.375,274.623 316.5,273.5C 316.5,271.833 316.5,270.167 316.5,268.5C 314.833,268.5 313.167,268.5 311.5,268.5C 311.5,270.167 311.5,271.833 311.5,273.5C 310.761,273.631 310.094,273.464 309.5,273C 310.833,272.333 310.833,271.667 309.5,271C 305.833,270.667 302.167,270.333 298.5,270C 298.833,269.667 299.167,269.333 299.5,269C 298.5,268.667 297.5,268.333 296.5,268C 288.856,266.845 281.189,266.012 273.5,265.5C 273.5,264.167 273.5,262.833 273.5,261.5C 272.167,261.5 270.833,261.5 269.5,261.5C 269.5,262.833 269.5,264.167 269.5,265.5C 265.486,265.666 261.486,265.499 257.5,265C 260.167,264.667 262.833,264.333 265.5,264C 254.5,263.333 243.5,263.333 232.5,264C 235.167,264.333 237.833,264.667 240.5,265C 236.848,265.499 233.182,265.665 229.5,265.5C 229.5,263.833 229.5,262.167 229.5,260.5C 225.062,259.425 223.062,261.092 223.5,265.5C 216.017,265.535 208.683,266.368 201.5,268C 200.5,268.333 199.5,268.667 198.5,269C 198.833,269.333 199.167,269.667 199.5,270C 195.833,270.333 192.167,270.667 188.5,271C 187.167,271.667 187.167,272.333 188.5,273C 187.906,273.464 187.239,273.631 186.5,273.5C 187.167,269.5 185.5,267.833 181.5,268.5C 181.5,270.167 181.5,271.833 181.5,273.5C 178.168,274.833 174.834,276.166 171.5,277.5C 169.257,278.474 166.924,278.808 164.5,278.5C 164.5,279.5 164.5,280.5 164.5,281.5C 158.649,282.711 152.982,284.377 147.5,286.5C 147.5,287.5 147.5,288.5 147.5,289.5C 142.495,290.573 137.828,292.239 133.5,294.5C 133.5,295.5 133.5,296.5 133.5,297.5C 130.412,297.639 127.745,298.639 125.5,300.5C 125.541,296.757 124.874,296.59 123.5,300C 122.207,300.49 120.873,300.657 119.5,300.5C 119.5,302.167 119.5,303.833 119.5,305.5C 117.868,306.908 116.202,308.408 114.5,310C 112.044,310.946 110.044,310.446 108.5,308.5C 109.954,306.737 109.62,305.403 107.5,304.5C 106.871,295.39 105.704,286.39 104,277.5C 102.049,269.793 99.5488,262.46 96.5,255.5C 98.256,254.448 98.9227,252.781 98.5,250.5C 96.8333,250.5 95.1667,250.5 93.5,250.5C 93.477,248.073 92.977,245.74 92,243.5C 90.8932,244.712 90.3932,244.379 90.5,242.5C 94.6518,242.369 95.3185,240.869 92.5,238C 91.2506,237.26 90.2506,237.427 89.5,238.5C 87.6214,238.607 87.2881,238.107 88.5,237C 85.0336,232.636 81.7003,228.136 78.5,223.5C 79.4511,222.081 79.7845,220.415 79.5,218.5C 77.901,218.232 76.5676,218.566 75.5,219.5C 73.4314,217.427 71.098,215.76 68.5,214.5C 68.5,213.5 68.5,212.5 68.5,211.5C 67.448,211.649 66.448,211.483 65.5,211C 65.8333,210.667 66.1667,210.333 66.5,210C 63.9437,207.939 61.6104,205.772 59.5,203.5C 59.5,201.833 59.5,200.167 59.5,198.5C 57.8333,198.5 56.1667,198.5 54.5,198.5C 51.9691,197.097 49.3025,195.93 46.5,195C 46.8333,194.667 47.1667,194.333 47.5,194C 44.4267,190.798 40.76,188.631 36.5,187.5C 36.7148,185.821 36.0481,184.821 34.5,184.5C 34.6621,182.473 34.4955,180.473 34,178.5C 32.6439,177.62 31.1439,177.286 29.5,177.5C 29.5,178.5 29.5,179.5 29.5,180.5C 25.8263,178.779 24.4929,175.779 25.5,171.5C 31.0031,171.54 36.3364,172.374 41.5,174C 40.1667,174.667 40.1667,175.333 41.5,176C 43.2556,176.202 44.9223,176.702 46.5,177.5C 48.3634,178.689 50.0301,180.022 51.5,181.5C 51.5,182.833 51.5,184.167 51.5,185.5C 53.7354,185.795 55.7354,185.461 57.5,184.5C 60.8216,186.828 64.4883,188.661 68.5,190C 67.4019,190.77 67.4019,191.603 68.5,192.5C 68.5,193.833 68.5,195.167 68.5,196.5C 70.4147,196.784 72.0813,196.451 73.5,195.5C 74.4674,196.806 75.8007,197.473 77.5,197.5C 77.5,198.5 77.5,199.5 77.5,200.5C 78.8734,200.343 80.2068,200.51 81.5,201C 81.1667,201.333 80.8333,201.667 80.5,202C 91.7042,211.078 101.704,221.244 110.5,232.5C 109.505,237.542 111.505,239.875 116.5,239.5C 119.156,242.794 121.822,246.127 124.5,249.5C 123.888,252.881 125.054,255.214 128,256.5C 129.03,256.164 129.53,255.497 129.5,254.5C 130.404,255.209 130.737,256.209 130.5,257.5C 132.731,258.624 135.064,259.124 137.5,259C 136.568,255.915 135.901,252.748 135.5,249.5C 135.663,247.143 135.497,244.81 135,242.5C 134.329,241.748 133.496,241.414 132.5,241.5C 133.263,238.859 133.43,236.192 133,233.5C 131.916,231.218 130.416,230.884 128.5,232.5C 126.275,229.296 125.108,225.629 125,221.5C 124.586,221.043 124.086,220.709 123.5,220.5C 122.634,216.222 121.634,212.055 120.5,208C 120.544,206.236 120.878,204.569 121.5,203C 123.902,202.186 126.235,202.353 128.5,203.5C 127.185,204.895 127.519,205.895 129.5,206.5C 130.452,208.045 130.785,209.712 130.5,211.5C 131.5,211.5 132.5,211.5 133.5,211.5C 133.215,213.288 133.548,214.955 134.5,216.5C 138.154,221.816 142.154,226.816 146.5,231.5C 145.539,233.265 145.205,235.265 145.5,237.5C 147.179,237.715 148.179,237.048 148.5,235.5C 150.569,237.573 152.902,239.24 155.5,240.5C 156.595,243.896 158.428,246.896 161,249.5C 160.998,240.143 160.332,230.81 159,221.5C 158.667,222.167 158.333,222.833 158,223.5C 157.611,215.749 156.611,208.083 155,200.5C 148.813,186.105 142.313,171.772 135.5,157.5C 137.98,152.207 136.314,149.207 130.5,148.5C 126.022,144.582 124.356,139.749 125.5,134C 128.5,133.333 131.5,133.333 134.5,134C 134.167,134.333 133.833,134.667 133.5,135C 135.959,136.29 138.292,137.79 140.5,139.5C 143.989,143.155 147.655,146.655 151.5,150C 151.167,150.333 150.833,150.667 150.5,151C 152.426,151.422 153.426,152.589 153.5,154.5C 153.201,156.604 153.534,158.604 154.5,160.5C 155.995,161.705 157.328,161.705 158.5,160.5C 158.833,160.5 159.167,160.5 159.5,160.5C 157.966,162.342 158.3,163.675 160.5,164.5C 160.442,168.747 162.442,171.08 166.5,171.5C 169.506,173.495 171.84,176.162 173.5,179.5C 172.425,183.938 174.092,185.938 178.5,185.5C 180.531,188.908 182.531,192.242 184.5,195.5C 184.338,197.527 184.505,199.527 185,201.5C 186.356,202.38 187.856,202.714 189.5,202.5C 191.31,205.303 192.643,208.303 193.5,211.5C 193.5,213.167 193.5,214.833 193.5,216.5C 194.5,216.5 195.5,216.5 196.5,216.5C 198.256,217.552 198.923,219.219 198.5,221.5C 198.318,223.591 198.652,225.591 199.5,227.5C 200.7,228.292 202.033,228.292 203.5,227.5C 203.783,228.216 204.116,229.049 204.5,230C 206.134,230.494 207.801,230.66 209.5,230.5C 208.19,218.84 208.19,207.173 209.5,195.5C 211.527,195.338 213.527,195.505 215.5,196C 216.131,198.099 217.131,199.932 218.5,201.5C 217.5,201.5 216.5,201.5 215.5,201.5C 215.5,203.833 215.5,206.167 215.5,208.5C 216.833,208.5 218.167,208.5 219.5,208.5C 220.222,208.918 220.722,209.584 221,210.5C 221.333,210.167 221.667,209.833 222,209.5C 224.49,213.544 226.323,218.211 227.5,223.5C 226.378,225.288 226.211,227.288 227,229.5C 228.011,230.337 229.178,230.67 230.5,230.5C 231.5,230.5 232.5,230.5 233.5,230.5C 233.202,223.69 233.869,217.024 235.5,210.5C 237.167,210.5 238.833,210.5 240.5,210.5C 240.5,208.5 240.5,206.5 240.5,204.5C 238.833,204.5 237.167,204.5 235.5,204.5C 235.336,201.813 235.503,199.146 236,196.5C 236.667,200.5 237.333,200.5 238,196.5C 238.498,193.518 238.665,190.518 238.5,187.5C 239.833,187.5 241.167,187.5 242.5,187.5C 243.244,184.05 241.91,182.384 238.5,182.5C 240.638,175.279 242.138,167.279 243,158.5C 243.499,153.845 243.666,149.179 243.5,144.5C 245.144,144.714 246.644,144.38 248,143.5C 248.497,141.19 248.663,138.857 248.5,136.5C 247.5,136.5 246.5,136.5 245.5,136.5C 246.192,128.858 246.692,121.192 247,113.5C 247.21,115.058 247.71,116.391 248.5,117.5C 250.722,117.441 251.722,116.275 251.5,114C 251.722,111.725 250.722,110.559 248.5,110.5C 249.074,104.516 249.407,98.5164 249.5,92.5C 251.144,92.7135 252.644,92.3802 254,91.5C 254.495,89.5273 254.662,87.5273 254.5,85.5C 253.5,85.5 252.5,85.5 251.5,85.5C 253.282,83.3131 255.448,82.9797 258,84.5C 259.824,88.4262 259.99,92.4262 258.5,96.5 Z"/></g>
<g><path style="opacity:0.675" fill="#ff3416" d="M 110.5,117.5 C 110.5,116.167 110.5,114.833 110.5,113.5C 108.585,113.216 106.919,113.549 105.5,114.5C 104.167,114.5 103.5,113.833 103.5,112.5C 103.5,110.833 103.5,109.167 103.5,107.5C 101.833,107.5 100.167,107.5 98.5,107.5C 98.5,106.5 98.5,105.5 98.5,104.5C 99.8333,104.5 101.167,104.5 102.5,104.5C 102.5,102.167 102.5,99.8333 102.5,97.5C 101.167,97.5 99.8333,97.5 98.5,97.5C 98.5,96.1667 98.5,94.8333 98.5,93.5C 100.907,92.2263 103.24,91.0597 105.5,90C 106.833,89.3333 106.833,88.6667 105.5,88C 109.5,87.3333 113.5,87.3333 117.5,88C 116.833,88.3333 116.167,88.6667 115.5,89C 117.392,89.9734 119.392,90.6401 121.5,91C 121.167,91.3333 120.833,91.6667 120.5,92C 124.283,92.6093 125.95,94.776 125.5,98.5C 126.5,98.5 127.5,98.5 128.5,98.5C 128.666,103.179 128.499,107.845 128,112.5C 127.333,111.167 126.667,111.167 126,112.5C 124.731,117.042 121.231,119.375 115.5,119.5C 113.545,119.276 111.879,118.609 110.5,117.5 Z"/></g>
<g><path style="opacity:0.075" fill="#ff200f" d="M 390.5,87.5 C 391.17,90.5904 390.003,92.257 387,92.5C 385.624,92.3158 384.791,91.6491 384.5,90.5C 385.923,88.4551 387.923,87.4551 390.5,87.5 Z"/></g>
<g><path style="opacity:0.831" fill="#ff3316" d="M 390.5,87.5 C 392.5,87.5 394.5,87.5 396.5,87.5C 396.5,88.8333 396.5,90.1667 396.5,91.5C 398.415,91.7845 400.081,91.4511 401.5,90.5C 403.824,91.5866 405.658,93.2533 407,95.5C 410.951,108.608 406.951,116.608 395,119.5C 392.422,117.981 389.589,117.148 386.5,117C 386.833,116.667 387.167,116.333 387.5,116C 377.101,108.264 376.101,99.7641 384.5,90.5C 384.791,91.6491 385.624,92.3158 387,92.5C 390.003,92.257 391.17,90.5904 390.5,87.5 Z"/></g>
<g><path style="opacity:0.044" fill="#ff450c" d="M 396.5,87.5 C 398.989,87.2407 400.656,88.2407 401.5,90.5C 400.081,91.4511 398.415,91.7845 396.5,91.5C 396.5,90.1667 396.5,88.8333 396.5,87.5 Z"/></g>
<g><path style="opacity:0.206" fill="#ff210e" d="M 251.5,85.5 C 252.5,85.5 253.5,85.5 254.5,85.5C 254.662,87.5273 254.495,89.5273 254,91.5C 252.644,92.3802 251.144,92.7135 249.5,92.5C 250.865,90.4091 251.532,88.0758 251.5,85.5 Z"/></g>
<g><path style="opacity:0.269" fill="#ff230f" d="M 98.5,97.5 C 99.8333,97.5 101.167,97.5 102.5,97.5C 102.5,99.8333 102.5,102.167 102.5,104.5C 101.167,104.5 99.8333,104.5 98.5,104.5C 98.5,102.167 98.5,99.8333 98.5,97.5 Z"/></g>
<g><path style="opacity:0.496" fill="#ff1708" d="M 258.5,96.5 C 258.448,98.9029 258.781,101.236 259.5,103.5C 258.167,103.5 256.833,103.5 255.5,103.5C 255.338,101.473 255.505,99.4727 256,97.5C 256.671,96.7476 257.504,96.4142 258.5,96.5 Z"/></g>
<g><path style="opacity:0.132" fill="#ff2e09" d="M 98.5,107.5 C 100.167,107.5 101.833,107.5 103.5,107.5C 103.5,109.167 103.5,110.833 103.5,112.5C 101.718,111.009 100.052,109.342 98.5,107.5 Z"/></g>
<g><path style="opacity:0.6" fill="#ff3a0c" d="M 248.5,110.5 C 250.722,110.559 251.722,111.725 251.5,114C 251.722,116.275 250.722,117.441 248.5,117.5C 248.5,115.167 248.5,112.833 248.5,110.5 Z"/></g>
<g><path style="opacity:0.008" fill="#ff1d0e" d="M 105.5,114.5 C 106.919,113.549 108.585,113.216 110.5,113.5C 110.5,114.833 110.5,116.167 110.5,117.5C 109.127,117.657 107.793,117.49 106.5,117C 107.566,115.841 107.233,115.008 105.5,114.5 Z"/></g>
<g><path style="opacity:0.015" fill="#ff210f" d="M 379.5,125.5 C 380.833,125.5 382.167,125.5 383.5,125.5C 383.5,126.833 383.5,128.167 383.5,129.5C 383.5,128.167 383.5,126.833 383.5,125.5C 382.167,125.5 380.833,125.5 379.5,125.5 Z"/></g>
<g><path style="opacity:0.012" fill="#ff350c" d="M 260.5,124.5 C 261.776,127.336 262.442,130.336 262.5,133.5C 261.425,134.562 260.425,134.562 259.5,133.5C 256.509,129.874 256.843,126.874 260.5,124.5 Z"/></g>
<g><path style="opacity:0.58" fill="#ff320b" d="M 245.5,136.5 C 246.5,136.5 247.5,136.5 248.5,136.5C 248.663,138.857 248.497,141.19 248,143.5C 246.644,144.38 245.144,144.714 243.5,144.5C 243.335,141.15 243.502,137.817 244,134.5C 244.333,136.833 244.667,139.167 245,141.5C 245.494,139.866 245.66,138.199 245.5,136.5 Z"/></g>
<g><path style="opacity:0.751" fill="#ff3416" d="M 490.5,141.5 C 490.759,145.068 492.759,146.401 496.5,145.5C 496.5,144.167 496.5,142.833 496.5,141.5C 499.453,143.222 503.12,144.889 507.5,146.5C 507.5,147.5 507.5,148.5 507.5,149.5C 508.833,149.5 510.167,149.5 511.5,149.5C 511.5,155.833 511.5,162.167 511.5,168.5C 510.167,168.5 508.833,168.5 507.5,168.5C 507.5,169.5 507.5,170.5 507.5,171.5C 504.983,172.01 502.983,173.344 501.5,175.5C 491.522,178.491 483.689,175.824 478,167.5C 477.171,162.467 477.338,157.467 478.5,152.5C 480.271,151.965 480.604,151.131 479.5,150C 483.13,146.086 486.796,143.253 490.5,141.5 Z"/></g>
<g><path style="opacity:0.033" fill="#ff1006" d="M 490.5,141.5 C 492.5,141.5 494.5,141.5 496.5,141.5C 496.5,142.833 496.5,144.167 496.5,145.5C 492.759,146.401 490.759,145.068 490.5,141.5 Z"/></g>
<g><path style="opacity:0.027" fill="#ff2c25" d="M 18.5,146.5 C 20.0481,146.821 20.7148,147.821 20.5,149.5C 21.5,149.5 22.5,149.5 23.5,149.5C 23.5,150.5 23.5,151.5 23.5,152.5C 19.686,152.349 18.0193,150.349 18.5,146.5 Z"/></g>
<g><path style="opacity:0.475" fill="#ff450c" d="M 12.5,144.5 C 14.3224,144.831 15.9891,145.498 17.5,146.5C 16.4479,148.256 14.7812,148.923 12.5,148.5C 12.5,147.167 12.5,145.833 12.5,144.5 Z"/></g>
<g><path style="opacity:0.841" fill="#ff3316" d="M 12.5,144.5 C 12.5,145.833 12.5,147.167 12.5,148.5C 14.7812,148.923 16.4479,148.256 17.5,146.5C 17.8333,146.5 18.1667,146.5 18.5,146.5C 18.0193,150.349 19.686,152.349 23.5,152.5C 23.8333,152.5 24.1667,152.5 24.5,152.5C 23.7347,155.096 23.4013,157.763 23.5,160.5C 24.5,160.5 25.5,160.5 26.5,160.5C 26.8174,163.572 26.4841,166.572 25.5,169.5C 23.1502,171.999 20.4836,173.999 17.5,175.5C 14.5,176.833 11.5,176.833 8.5,175.5C 6.13278,173.598 3.46612,172.265 0.5,171.5C 0.030161,163.009 0.696828,154.676 2.5,146.5C 5.83333,145.833 9.16667,145.167 12.5,144.5 Z"/></g>
<g><path style="opacity:0.379" fill="#ff2811" d="M 130.5,148.5 C 136.314,149.207 137.98,152.207 135.5,157.5C 134.069,156.22 133.402,154.553 133.5,152.5C 132.5,152.5 131.5,152.5 130.5,152.5C 130.5,151.167 130.5,149.833 130.5,148.5 Z"/></g>
<g><path style="opacity:0.505" fill="#ff450b" d="M 24.5,152.5 C 26.369,154.635 27.0356,157.302 26.5,160.5C 25.5,160.5 24.5,160.5 23.5,160.5C 23.4013,157.763 23.7347,155.096 24.5,152.5 Z"/></g>
<g><path style="opacity:0.332" fill="#ff250f" d="M 153.5,154.5 C 155.048,154.821 155.715,155.821 155.5,157.5C 156.5,157.5 157.5,157.5 158.5,157.5C 158.5,158.5 158.5,159.5 158.5,160.5C 157.328,161.705 155.995,161.705 154.5,160.5C 153.534,158.604 153.201,156.604 153.5,154.5 Z"/></g>
<g><path style="opacity:0.762" fill="#ff3316" d="M 203.5,160.5 C 209.039,159.779 214.039,160.779 218.5,163.5C 218.5,165.833 218.5,168.167 218.5,170.5C 219.833,170.5 221.167,170.5 222.5,170.5C 222.823,174.226 222.489,177.893 221.5,181.5C 220.305,183.297 218.638,184.297 216.5,184.5C 216.5,185.5 216.5,186.5 216.5,187.5C 212.5,187.5 208.5,187.5 204.5,187.5C 204.5,186.5 204.5,185.5 204.5,184.5C 200.605,183.271 198.105,180.604 197,176.5C 196.667,177.167 196.333,177.833 196,178.5C 195.503,176.19 195.337,173.857 195.5,171.5C 197.144,171.714 198.644,171.38 200,170.5C 201.914,167.423 203.081,164.089 203.5,160.5 Z"/></g>
<g><path style="opacity:0.727" fill="#ff3315" d="M 296.5,160.5 C 302.012,161.709 306.679,164.375 310.5,168.5C 311.495,173.792 311.828,179.125 311.5,184.5C 310.448,184.351 309.448,184.517 308.5,185C 307.167,185.667 307.167,186.333 308.5,187C 298.157,190.605 290.323,187.772 285,178.5C 283.774,172.923 285.274,168.256 289.5,164.5C 292.268,163.602 294.601,162.269 296.5,160.5 Z"/></g>
<g><path style="opacity:0.131" fill="#ff340d" d="M 159.5,160.5 C 160.582,162.754 162.249,164.588 164.5,166C 164.167,166.333 163.833,166.667 163.5,167C 165.863,167.589 166.863,169.089 166.5,171.5C 162.442,171.08 160.442,168.747 160.5,164.5C 158.3,163.675 157.966,162.342 159.5,160.5 Z"/></g>
<g><path style="opacity:0.328" fill="#ff1c0b" d="M 218.5,163.5 C 221.48,164.829 222.813,167.163 222.5,170.5C 221.167,170.5 219.833,170.5 218.5,170.5C 218.5,168.167 218.5,165.833 218.5,163.5 Z"/></g>
<g><path style="opacity:0.123" fill="#ff350e" d="M 203.5,160.5 C 203.081,164.089 201.914,167.423 200,170.5C 198.644,171.38 197.144,171.714 195.5,171.5C 197.621,169.952 198.955,167.285 199.5,163.5C 200.642,162.174 201.976,161.174 203.5,160.5 Z"/></g>
<g><path style="opacity:0.72" fill="#ff3317" d="M 113.5,200.5 C 113.833,196.998 112.333,194.664 109,193.5C 107.97,193.836 107.47,194.503 107.5,195.5C 105.05,191.988 104.05,187.988 104.5,183.5C 109.323,183.673 111.323,181.339 110.5,176.5C 111.552,176.649 112.552,176.483 113.5,176C 114.833,175.333 114.833,174.667 113.5,174C 116.167,173.333 118.833,173.333 121.5,174C 121.167,174.333 120.833,174.667 120.5,175C 123.1,175.883 125.267,177.383 127,179.5C 127.333,179.167 127.667,178.833 128,178.5C 131.105,185.057 131.272,191.724 128.5,198.5C 123.679,200.135 118.679,200.802 113.5,200.5 Z"/></g>
<g><path style="opacity:0.694" fill="#ff3416" d="M 396.5,176.5 C 395.627,181.294 397.627,183.627 402.5,183.5C 402.5,188.167 402.5,192.833 402.5,197.5C 399.407,199.207 396.074,200.707 392.5,202C 393.167,202.333 393.833,202.667 394.5,203C 392.167,203.667 389.833,203.667 387.5,203C 387.833,202.667 388.167,202.333 388.5,202C 384.677,200.925 381.344,199.091 378.5,196.5C 377.902,195.205 377.402,193.872 377,192.5C 376.667,193.167 376.333,193.833 376,194.5C 374.258,187.476 376.091,181.809 381.5,177.5C 385.023,176.413 387.69,175.08 389.5,173.5C 390.5,173.667 391.5,173.833 392.5,174C 391.167,174.667 391.167,175.333 392.5,176C 393.793,176.49 395.127,176.657 396.5,176.5 Z"/></g>
<g><path style="opacity:0.108" fill="#ff1e0c" d="M 361.5,175.5 C 360.032,176.779 359.365,178.446 359.5,180.5C 358.5,180.5 357.5,180.5 356.5,180.5C 356.162,176.849 357.828,175.183 361.5,175.5 Z"/></g>
<g><path style="opacity:0.204" fill="#ff1809" d="M 478.5,173.5 C 479.748,174.334 480.415,175.667 480.5,177.5C 480.415,179.333 479.748,180.666 478.5,181.5C 478.5,178.833 478.5,176.167 478.5,173.5 Z"/></g>
<g><path style="opacity:0.071" fill="#ff430d" d="M 333.5,175.5 C 334.645,180.677 332.645,183.677 327.5,184.5C 329.114,180.676 331.114,177.676 333.5,175.5 Z"/></g>
<g><path style="opacity:0.045" fill="#ff1909" d="M 396.5,176.5 C 398.745,178.678 400.745,181.012 402.5,183.5C 397.627,183.627 395.627,181.294 396.5,176.5 Z"/></g>
<g><path style="opacity:0.254" fill="#ff250f" d="M 34.5,184.5 C 33.0158,182.926 31.3492,181.593 29.5,180.5C 29.5,179.5 29.5,178.5 29.5,177.5C 31.1439,177.286 32.6439,177.62 34,178.5C 34.4955,180.473 34.6621,182.473 34.5,184.5 Z"/></g>
<g><path style="opacity:0.385" fill="#ff380b" d="M 268.5,175.5 C 268.5,178.167 268.5,180.833 268.5,183.5C 266.833,183.5 265.167,183.5 263.5,183.5C 263.337,181.143 263.503,178.81 264,176.5C 265.356,175.62 266.856,175.286 268.5,175.5 Z"/></g>
<g><path style="opacity:0.28" fill="#ff400e" d="M 51.5,181.5 C 53.1667,181.5 54.8333,181.5 56.5,181.5C 56.2627,182.791 56.596,183.791 57.5,184.5C 55.7354,185.461 53.7354,185.795 51.5,185.5C 51.5,184.167 51.5,182.833 51.5,181.5 Z"/></g>
<g><path style="opacity:0.282" fill="#ff200d" d="M 454.5,181.5 C 454.5,182.833 454.5,184.167 454.5,185.5C 452.901,185.768 451.568,185.434 450.5,184.5C 450.5,183.5 450.5,182.5 450.5,181.5C 451.833,181.5 453.167,181.5 454.5,181.5 Z"/></g>
<g><path style="opacity:0.152" fill="#ff410d" d="M 110.5,176.5 C 111.323,181.339 109.323,183.673 104.5,183.5C 105.668,180.407 107.668,178.074 110.5,176.5 Z"/></g>
<g><path style="opacity:0.041" fill="#ff0c04" d="M 238.5,182.5 C 241.91,182.384 243.244,184.05 242.5,187.5C 241.167,187.5 239.833,187.5 238.5,187.5C 238.5,185.833 238.5,184.167 238.5,182.5 Z"/></g>
<g><path style="opacity:0.022" fill="#ff1b0a" d="M 173.5,179.5 C 175.31,181.382 176.977,183.382 178.5,185.5C 174.092,185.938 172.425,183.938 173.5,179.5 Z"/></g>
<g><path style="opacity:0.129" fill="#ff3c0a" d="M 327.5,184.5 C 328.658,189.109 326.991,191.776 322.5,192.5C 323.392,189.33 325.058,186.663 327.5,184.5 Z"/></g>
<g><path style="opacity:0.29" fill="#ff1b0b" d="M 68.5,192.5 C 70.6636,192.721 72.3303,193.721 73.5,195.5C 72.0813,196.451 70.4147,196.784 68.5,196.5C 68.5,195.167 68.5,193.833 68.5,192.5 Z"/></g>
<g><path style="opacity:0.084" fill="#ff1d0d" d="M 113.5,200.5 C 111.05,199.289 109.05,197.622 107.5,195.5C 107.47,194.503 107.97,193.836 109,193.5C 112.333,194.664 113.833,196.998 113.5,200.5 Z"/></g>
<g><path style="opacity:0.071" fill="#ff230b" d="M 435.5,194.5 C 435.465,198.547 433.465,201.214 429.5,202.5C 428.287,202.253 427.62,201.586 427.5,200.5C 429.048,200.179 429.715,199.179 429.5,197.5C 431.716,196.956 433.716,195.956 435.5,194.5 Z"/></g>
<g><path style="opacity:0.167" fill="#ff3a0b" d="M 184.5,195.5 C 186.612,197.5 188.278,199.834 189.5,202.5C 187.856,202.714 186.356,202.38 185,201.5C 184.505,199.527 184.338,197.527 184.5,195.5 Z"/></g>
<g><path style="opacity:0.144" fill="#ff430d" d="M 54.5,198.5 C 56.1667,198.5 57.8333,198.5 59.5,198.5C 59.5,200.167 59.5,201.833 59.5,203.5C 57.9273,201.794 55.9273,200.627 53.5,200C 54.056,199.617 54.3893,199.117 54.5,198.5 Z"/></g>
<g><path style="opacity:0.156" fill="#ff4808" d="M 318.5,200.5 C 318.5,202.167 318.5,203.833 318.5,205.5C 317.167,205.5 315.833,205.5 314.5,205.5C 315.582,203.661 316.415,201.661 317,199.5C 317.383,200.056 317.883,200.389 318.5,200.5 Z"/></g>
<g><path style="opacity:0.287" fill="#ff2d1b" d="M 288.5,204.5 C 289.496,204.414 290.329,204.748 291,205.5C 292.153,210.705 289.987,213.038 284.5,212.5C 286.808,210.582 287.475,208.249 286.5,205.5C 287.2,205.213 287.867,204.88 288.5,204.5 Z"/></g>
<g><path style="opacity:0.539" fill="#ff1e0c" d="M 218.5,201.5 C 219.468,203.607 219.802,205.941 219.5,208.5C 218.167,208.5 216.833,208.5 215.5,208.5C 215.5,206.167 215.5,203.833 215.5,201.5C 216.5,201.5 217.5,201.5 218.5,201.5 Z"/></g>
<g><path style="opacity:0.055" fill="#ff1508" d="M 235.5,204.5 C 237.167,204.5 238.833,204.5 240.5,204.5C 240.5,206.5 240.5,208.5 240.5,210.5C 238.833,210.5 237.167,210.5 235.5,210.5C 235.5,208.5 235.5,206.5 235.5,204.5 Z"/></g>
<g><path style="opacity:0.141" fill="#ff270e" d="M 386.5,213.5 C 385.504,213.586 384.671,213.252 384,212.5C 383.345,210.372 382.511,208.372 381.5,206.5C 383.364,205.207 385.364,205.207 387.5,206.5C 386.626,208.747 386.292,211.08 386.5,213.5 Z"/></g>
<g><path style="opacity:0.035" fill="#ff1b05" d="M 445.5,208.5 C 444.833,210.5 443.5,211.833 441.5,212.5C 441.5,210.833 441.5,209.167 441.5,207.5C 443.099,207.232 444.432,207.566 445.5,208.5 Z"/></g>
<g><path style="opacity:0.031" fill="#ff5604" d="M 440.5,214.5 C 439.778,215.551 438.778,216.218 437.5,216.5C 437.284,214.319 438.117,212.653 440,211.5C 440.483,212.448 440.649,213.448 440.5,214.5 Z"/></g>
<g><path style="opacity:0.004" fill="#ff1407" d="M 193.5,211.5 C 195.408,212.486 196.408,214.152 196.5,216.5C 195.5,216.5 194.5,216.5 193.5,216.5C 193.5,214.833 193.5,213.167 193.5,211.5 Z"/></g>
<g><path style="opacity:0.504" fill="#ff3a0b" d="M 383.5,219.5 C 383.5,221.5 383.5,223.5 383.5,225.5C 380.512,225.845 379.179,224.512 379.5,221.5C 379.548,217.404 380.882,216.737 383.5,219.5 Z"/></g>
<g><path style="opacity:0.004" fill="#ff251f" d="M 435.5,219.5 C 434.833,220.5 434.167,221.5 433.5,222.5C 433.201,220.396 433.534,218.396 434.5,216.5C 435.386,217.325 435.719,218.325 435.5,219.5 Z"/></g>
<g><path style="opacity:0.118" fill="#ff4010" d="M 78.5,223.5 C 77.5266,223.013 76.5266,222.513 75.5,222C 76.5981,221.23 76.5981,220.397 75.5,219.5C 76.5676,218.566 77.901,218.232 79.5,218.5C 79.7845,220.415 79.4511,222.081 78.5,223.5 Z"/></g>
<g><path style="opacity:0.122" fill="#ff7403" d="M 306.5,219.5 C 306.843,221.483 306.176,222.817 304.5,223.5C 304.989,222.005 305.655,220.671 306.5,219.5 Z"/></g>
<g><path style="opacity:0.439" fill="#ff5a0b" d="M 306.5,219.5 C 306.833,219.5 307.167,219.5 307.5,219.5C 307.5,221.167 307.5,222.833 307.5,224.5C 306.167,224.5 304.833,224.5 303.5,224.5C 303.5,223.833 303.833,223.5 304.5,223.5C 306.176,222.817 306.843,221.483 306.5,219.5 Z"/></g>
<g><path style="opacity:0.084" fill="#ff210e" d="M 346.5,220.5 C 346.5,221.833 346.5,223.167 346.5,224.5C 345.167,224.5 343.833,224.5 342.5,224.5C 342.5,222.833 342.5,221.167 342.5,219.5C 343.959,219.433 345.292,219.766 346.5,220.5 Z"/></g>
<g><path style="opacity:0.235" fill="#ff3a0b" d="M 198.5,221.5 C 200.56,223.075 202.226,225.075 203.5,227.5C 202.033,228.292 200.7,228.292 199.5,227.5C 198.652,225.591 198.318,223.591 198.5,221.5 Z"/></g>
<g><path style="opacity:0.224" fill="#ff1c0c" d="M 227.5,223.5 C 228.684,225.771 229.684,228.105 230.5,230.5C 229.178,230.67 228.011,230.337 227,229.5C 226.211,227.288 226.378,225.288 227.5,223.5 Z"/></g>
<g><path style="opacity:0.464" fill="#ff210d" d="M 302.5,227.5 C 302.5,229.833 302.5,232.167 302.5,234.5C 300.62,234.771 299.287,234.104 298.5,232.5C 299.485,230.494 300.818,228.827 302.5,227.5 Z"/></g>
<g><path style="opacity:0.51" fill="#ff400e" d="M 380.5,230.5 C 380.5,230.833 380.5,231.167 380.5,231.5C 379.5,231.5 378.5,231.5 377.5,231.5C 377.157,233.483 377.824,234.817 379.5,235.5C 379.5,236.167 379.167,236.5 378.5,236.5C 376.656,234.721 375.99,232.388 376.5,229.5C 377.959,229.433 379.292,229.766 380.5,230.5 Z"/></g>
<g><path style="opacity:0.161" fill="#ff4e04" d="M 380.5,231.5 C 381.097,231.735 381.43,232.235 381.5,233C 380.944,234.011 380.278,234.844 379.5,235.5C 377.824,234.817 377.157,233.483 377.5,231.5C 378.5,231.5 379.5,231.5 380.5,231.5 Z"/></g>
<g><path style="opacity:0.213" fill="#ff330c" d="M 274.5,229.5 C 274.285,231.179 274.952,232.179 276.5,232.5C 277.684,233.688 277.684,234.855 276.5,236C 271.917,236.934 270.417,235.1 272,230.5C 272.671,229.748 273.504,229.414 274.5,229.5 Z"/></g>
<g><path style="opacity:0.02" fill="#ff4d06" d="M 128.5,233.5 C 129.5,233.5 130.5,233.5 131.5,233.5C 131.5,236.167 131.5,238.833 131.5,241.5C 130.715,238.82 129.715,236.154 128.5,233.5 Z"/></g>
<g><path style="opacity:0.643" fill="#ff3d11" d="M 132.5,241.5 C 132.167,241.5 131.833,241.5 131.5,241.5C 131.5,238.833 131.5,236.167 131.5,233.5C 130.5,233.5 129.5,233.5 128.5,233.5C 128.5,233.167 128.5,232.833 128.5,232.5C 130.416,230.884 131.916,231.218 133,233.5C 133.43,236.192 133.263,238.859 132.5,241.5 Z"/></g>
<g><path style="opacity:0.329" fill="#ff1f0d" d="M 146.5,231.5 C 147.806,232.467 148.473,233.801 148.5,235.5C 148.179,237.048 147.179,237.715 145.5,237.5C 145.205,235.265 145.539,233.265 146.5,231.5 Z"/></g>
<g><path style="opacity:0.324" fill="#ff200d" d="M 360.5,231.5 C 361.461,233.265 361.795,235.265 361.5,237.5C 359.62,237.771 358.287,237.104 357.5,235.5C 358.147,233.859 359.147,232.526 360.5,231.5 Z"/></g>
<g><path style="opacity:0.176" fill="#ff3e11" d="M 90.5,242.5 C 90.1667,241.167 89.8333,239.833 89.5,238.5C 90.2506,237.427 91.2506,237.26 92.5,238C 95.3185,240.869 94.6518,242.369 90.5,242.5 Z"/></g>
<g><path style="opacity:0.143" fill="#ff1a0e" d="M 110.5,232.5 C 112.76,234.546 114.76,236.88 116.5,239.5C 111.505,239.875 109.505,237.542 110.5,232.5 Z"/></g>
<g><path style="opacity:0.131" fill="#ff1508" d="M 131.5,241.5 C 131.833,241.5 132.167,241.5 132.5,241.5C 133.496,241.414 134.329,241.748 135,242.5C 135.497,244.81 135.663,247.143 135.5,249.5C 133.811,247.157 132.477,244.49 131.5,241.5 Z"/></g>
<g><path style="opacity:0.514" fill="#ff4809" d="M 93.5,250.5 C 95.1667,250.5 96.8333,250.5 98.5,250.5C 98.9227,252.781 98.256,254.448 96.5,255.5C 96.5,254.167 96.5,252.833 96.5,251.5C 95.209,251.737 94.209,251.404 93.5,250.5 Z"/></g>
<g><path style="opacity:0.192" fill="#ff460a" d="M 380.5,249.5 C 380.5,250.833 380.5,252.167 380.5,253.5C 379.167,253.5 377.833,253.5 376.5,253.5C 377.167,251.5 378.5,250.167 380.5,249.5 Z"/></g>
<g><path style="opacity:0.398" fill="#ff430b" d="M 124.5,249.5 C 126.167,251.167 127.833,252.833 129.5,254.5C 129.53,255.497 129.03,256.164 128,256.5C 125.054,255.214 123.888,252.881 124.5,249.5 Z"/></g>
<g><path style="opacity:0.035" fill="#ff200f" d="M 229.5,265.5 C 227.5,265.5 225.5,265.5 223.5,265.5C 223.062,261.092 225.062,259.425 229.5,260.5C 229.5,262.167 229.5,263.833 229.5,265.5 Z"/></g>
<g><path style="opacity:0.045" fill="#ff1b0b" d="M 273.5,265.5 C 272.167,265.5 270.833,265.5 269.5,265.5C 269.5,264.167 269.5,262.833 269.5,261.5C 270.833,261.5 272.167,261.5 273.5,261.5C 273.5,262.833 273.5,264.167 273.5,265.5 Z"/></g>
<g><path style="opacity:0.004" fill="#fe3416" d="M 241.5,264.5 C 242.833,265.167 242.833,265.167 241.5,264.5 Z"/></g>
<g><path style="opacity:0.043" fill="#ff210e" d="M 186.5,273.5 C 184.833,273.5 183.167,273.5 181.5,273.5C 181.5,271.833 181.5,270.167 181.5,268.5C 185.5,267.833 187.167,269.5 186.5,273.5 Z"/></g>
<g><path style="opacity:0.143" fill="#ff200d" d="M 316.5,273.5 C 314.833,273.5 313.167,273.5 311.5,273.5C 311.5,271.833 311.5,270.167 311.5,268.5C 313.167,268.5 314.833,268.5 316.5,268.5C 316.5,270.167 316.5,271.833 316.5,273.5 Z"/></g>
<g><path style="opacity:0.134" fill="#ff2812" d="M 402.5,273.5 C 402.802,276.059 402.468,278.393 401.5,280.5C 400.5,280.5 399.5,280.5 398.5,280.5C 398.183,277.428 398.516,274.428 399.5,271.5C 400.518,272.193 401.518,272.859 402.5,273.5 Z"/></g>
<g><path style="opacity:0.258" fill="#ff400f" d="M 125.5,300.5 C 123.557,302.165 121.557,303.832 119.5,305.5C 119.5,303.833 119.5,302.167 119.5,300.5C 120.873,300.657 122.207,300.49 123.5,300C 124.874,296.59 125.541,296.757 125.5,300.5 Z"/></g>
<g><path style="opacity:0.012" fill="#ff190b" d="M 385.5,310.5 C 386.601,309.402 387.934,309.235 389.5,310C 389.998,311.158 390.831,311.991 392,312.5C 393.766,311.767 395.599,311.433 397.5,311.5C 396.766,312.708 396.433,314.041 396.5,315.5C 394.488,316.014 392.488,316.18 390.5,316C 391.167,315.667 391.833,315.333 392.5,315C 390.655,313.872 388.655,313.372 386.5,313.5C 386.737,312.209 386.404,311.209 385.5,310.5 Z"/></g>
<g><path style="opacity:0.844" fill="#ff3316" d="M 254.5,434.5 C 256.805,432.955 257.138,430.955 255.5,428.5C 256.156,417.24 256.49,405.907 256.5,394.5C 256.499,383.146 255.832,372.146 254.5,361.5C 254.5,359.833 254.5,358.167 254.5,356.5C 260.833,356.5 267.167,356.5 273.5,356.5C 273.5,379.833 273.5,403.167 273.5,426.5C 277.833,426.5 282.167,426.5 286.5,426.5C 286.5,433.167 286.5,439.833 286.5,446.5C 278.16,446.666 269.827,446.5 261.5,446C 260.663,444.989 260.33,443.822 260.5,442.5C 259.5,442.5 258.5,442.5 257.5,442.5C 257.5,441.5 257.5,440.5 257.5,439.5C 256.5,439.5 255.5,439.5 254.5,439.5C 254.5,437.833 254.5,436.167 254.5,434.5 Z"/></g>
<g><path style="opacity:0.632" fill="#ff3416" d="M 313.5,373.5 C 311.027,373.088 309.694,374.088 309.5,376.5C 305.167,376.5 300.833,376.5 296.5,376.5C 296.5,375.167 296.5,373.833 296.5,372.5C 295.167,372.5 293.833,372.5 292.5,372.5C 292.5,367.167 292.5,361.833 292.5,356.5C 299.2,356.17 305.866,356.503 312.5,357.5C 313.451,362.77 313.785,368.103 313.5,373.5 Z"/></g>
<g><path style="opacity:0.679" fill="#ff3317" d="M 89.5,361.5 C 117.5,361.5 145.5,361.5 173.5,361.5C 173.5,368.833 173.5,376.167 173.5,383.5C 162.833,383.5 152.167,383.5 141.5,383.5C 141.5,404.5 141.5,425.5 141.5,446.5C 134.5,446.5 127.5,446.5 120.5,446.5C 120.173,425.591 120.507,404.758 121.5,384C 110.5,383.667 99.5,383.333 88.5,383C 87.3567,376.582 87.19,370.082 88,363.5C 88.7172,362.956 89.2172,362.289 89.5,361.5 Z"/></g>
<g><path style="opacity:0.4" fill="#ff3c1d" d="M 254.5,361.5 C 255.832,372.146 256.499,383.146 256.5,394.5C 256.49,405.907 256.156,417.24 255.5,428.5C 255.167,428.5 254.833,428.5 254.5,428.5C 254.5,406.167 254.5,383.833 254.5,361.5 Z"/></g>
<g><path style="opacity:0.737" fill="#ff3416" d="M 395.5,364.5 C 395.4,369.316 397.733,371.649 402.5,371.5C 402.859,373.485 403.692,374.151 405,373.5C 405.5,397.831 405.667,422.164 405.5,446.5C 398.167,446.5 390.833,446.5 383.5,446.5C 383.184,438.248 383.518,430.081 384.5,422C 377.16,420.847 369.66,420.347 362,420.5C 354.34,420.347 346.84,420.847 339.5,422C 340.482,430.081 340.816,438.248 340.5,446.5C 333.5,446.5 326.5,446.5 319.5,446.5C 319.167,421.824 319.5,397.158 320.5,372.5C 321.803,369.534 323.803,367.2 326.5,365.5C 328.045,364.548 329.712,364.215 331.5,364.5C 331.5,363.5 331.5,362.5 331.5,361.5C 351.833,361.5 372.167,361.5 392.5,361.5C 392.5,362.5 392.5,363.5 392.5,364.5C 393.5,364.5 394.5,364.5 395.5,364.5 Z M 383.5,397.5 C 383.33,398.822 383.663,399.989 384.5,401C 369.837,401.5 355.17,401.667 340.5,401.5C 340.5,400.5 340.5,399.5 340.5,398.5C 340.803,393.57 340.469,388.737 339.5,384C 354.5,383.333 369.5,383.333 384.5,384C 383.533,388.401 383.2,392.901 383.5,397.5 Z"/></g>
<g><path style="opacity:0.085" fill="#ff2410" d="M 395.5,364.5 C 398.457,366.158 400.79,368.491 402.5,371.5C 397.733,371.649 395.4,369.316 395.5,364.5 Z"/></g>
<g><path style="opacity:0.173" fill="#ff2309" d="M 292.5,372.5 C 293.833,372.5 295.167,372.5 296.5,372.5C 296.5,373.833 296.5,375.167 296.5,376.5C 295.167,376.5 293.833,376.5 292.5,376.5C 292.5,375.167 292.5,373.833 292.5,372.5 Z"/></g>
<g><path style="opacity:0.004" fill="#ff1506" d="M 313.5,373.5 C 313.5,374.5 313.5,375.5 313.5,376.5C 312.167,376.5 310.833,376.5 309.5,376.5C 309.694,374.088 311.027,373.088 313.5,373.5 Z"/></g>
<g><path style="opacity:0.804" fill="#ff3416" d="M 192.5,377.5 C 192.5,395.167 192.5,412.833 192.5,430.5C 194.099,430.768 195.432,430.434 196.5,429.5C 197.404,428.791 197.737,427.791 197.5,426.5C 207.5,426.5 217.5,426.5 227.5,426.5C 227.5,410.5 227.5,394.5 227.5,378.5C 233.31,377.289 238.977,377.289 244.5,378.5C 243.846,398.196 244.512,417.529 246.5,436.5C 246.5,437.5 246.5,438.5 246.5,439.5C 245.5,439.5 244.5,439.5 243.5,439.5C 243.5,440.5 243.5,441.5 243.5,442.5C 242.5,442.5 241.5,442.5 240.5,442.5C 240.64,444.124 239.973,445.29 238.5,446C 219.743,446.974 201.076,446.64 182.5,445C 182.833,444.667 183.167,444.333 183.5,444C 182.377,442.956 181.044,442.29 179.5,442C 179.833,441.667 180.167,441.333 180.5,441C 179.299,440.097 178.465,438.931 178,437.5C 177.667,437.833 177.333,438.167 177,438.5C 176.5,418.503 176.333,398.503 176.5,378.5C 181.787,377.658 187.12,377.324 192.5,377.5 Z"/></g>
<g><path style="opacity:0.433" fill="#ff1608" d="M 193.5,378.5 C 194.833,394.5 196.167,410.5 197.5,426.5C 197.737,427.791 197.404,428.791 196.5,429.5C 195.5,429.5 194.5,429.5 193.5,429.5C 193.5,412.5 193.5,395.5 193.5,378.5 Z"/></g>
<g><path style="opacity:0.778" fill="#ff3316" d="M 309.5,378.5 C 309.5,379.5 309.5,380.5 309.5,381.5C 310.833,381.5 312.167,381.5 313.5,381.5C 313.5,403.167 313.5,424.833 313.5,446.5C 308.167,446.5 302.833,446.5 297.5,446.5C 296.522,425.212 296.189,403.879 296.5,382.5C 295.167,382.5 293.833,382.5 292.5,382.5C 292.5,381.167 292.5,379.833 292.5,378.5C 298.167,378.5 303.833,378.5 309.5,378.5 Z"/></g>
<g><path style="opacity:0.048" fill="#ff1b0a" d="M 309.5,378.5 C 311.973,378.088 313.306,379.088 313.5,381.5C 312.167,381.5 310.833,381.5 309.5,381.5C 309.5,380.5 309.5,379.5 309.5,378.5 Z"/></g>
<g><path style="opacity:0.738" fill="#ff2a13" d="M 192.5,377.5 C 193.167,377.5 193.5,377.833 193.5,378.5C 193.5,395.5 193.5,412.5 193.5,429.5C 194.5,429.5 195.5,429.5 196.5,429.5C 195.432,430.434 194.099,430.768 192.5,430.5C 192.5,412.833 192.5,395.167 192.5,377.5 Z"/></g>
<g><path style="opacity:0.408" fill="#ff1408" d="M 244.5,378.5 C 246.488,397.471 247.154,416.804 246.5,436.5C 244.512,417.529 243.846,398.196 244.5,378.5 Z"/></g>
<g><path style="opacity:0.268" fill="#ff371b" d="M 292.5,382.5 C 293.833,382.5 295.167,382.5 296.5,382.5C 296.189,403.879 296.522,425.212 297.5,446.5C 295.833,446.5 294.167,446.5 292.5,446.5C 292.5,425.167 292.5,403.833 292.5,382.5 Z"/></g>
<g><path style="opacity:0.448" fill="#ff371a" d="M 383.5,397.5 C 387.057,399.128 387.39,401.294 384.5,404C 369.5,404.667 354.5,404.667 339.5,404C 336.015,403.507 335.515,402.007 338,399.5C 338.671,398.748 339.504,398.414 340.5,398.5C 340.5,399.5 340.5,400.5 340.5,401.5C 355.17,401.667 369.837,401.5 384.5,401C 383.663,399.989 383.33,398.822 383.5,397.5 Z"/></g>
<g><path style="opacity:0.112" fill="#ff2821" d="M 254.5,428.5 C 254.833,428.5 255.167,428.5 255.5,428.5C 257.138,430.955 256.805,432.955 254.5,434.5C 254.5,432.5 254.5,430.5 254.5,428.5 Z"/></g>
</svg>
